<mxfile host="app.diagrams.net" agent="Mozilla/5.0 (Windows NT 10.0; Win64; x64) AppleWebKit/537.36 (KHTML, like Gecko) Chrome/135.0.0.0 Safari/537.36" version="26.2.14">
  <diagram name="ページ1" id="ZgB-vDMlEkzfdVvJ_r_G">
    <mxGraphModel dx="1343" dy="821" grid="1" gridSize="10" guides="1" tooltips="1" connect="1" arrows="1" fold="1" page="1" pageScale="1" pageWidth="1169" pageHeight="827" math="0" shadow="0">
      <root>
        <mxCell id="0" />
        <mxCell id="1" parent="0" />
        <mxCell id="f6-fJL4klEwai7N9noOa-1" value="哲学者の行為と個性（特性）&lt;div&gt;&lt;br&gt;&lt;/div&gt;&lt;div&gt;OODA LOOP上に配置&lt;/div&gt;" style="text;html=1;align=center;verticalAlign=middle;whiteSpace=wrap;rounded=0;fillColor=#dae8fc;strokeColor=#6c8ebf;" vertex="1" parent="1">
          <mxGeometry x="60" y="80" width="200" height="70" as="geometry" />
        </mxCell>
        <mxCell id="f6-fJL4klEwai7N9noOa-2" value="Orient&lt;div&gt;情勢判断&lt;/div&gt;" style="ellipse;whiteSpace=wrap;html=1;fillColor=#d5e8d4;strokeColor=#82b366;" vertex="1" parent="1">
          <mxGeometry x="390" y="280" width="110" height="100" as="geometry" />
        </mxCell>
        <mxCell id="f6-fJL4klEwai7N9noOa-3" value="Observe&lt;div&gt;観察&lt;/div&gt;" style="ellipse;whiteSpace=wrap;html=1;fillColor=#d5e8d4;strokeColor=#82b366;" vertex="1" parent="1">
          <mxGeometry x="200" y="280" width="110" height="100" as="geometry" />
        </mxCell>
        <mxCell id="f6-fJL4klEwai7N9noOa-4" value="Decide&lt;div&gt;意思決定&lt;/div&gt;" style="ellipse;whiteSpace=wrap;html=1;fillColor=#d5e8d4;strokeColor=#82b366;" vertex="1" parent="1">
          <mxGeometry x="580" y="280" width="110" height="100" as="geometry" />
        </mxCell>
        <mxCell id="f6-fJL4klEwai7N9noOa-5" value="INPUT" style="rounded=1;whiteSpace=wrap;html=1;" vertex="1" parent="1">
          <mxGeometry x="40" y="280" width="80" height="100" as="geometry" />
        </mxCell>
        <mxCell id="f6-fJL4klEwai7N9noOa-6" value="OUTPUT" style="rounded=1;whiteSpace=wrap;html=1;" vertex="1" parent="1">
          <mxGeometry x="960" y="285" width="80" height="90" as="geometry" />
        </mxCell>
        <mxCell id="f6-fJL4klEwai7N9noOa-7" value="" style="ellipse;whiteSpace=wrap;html=1;aspect=fixed;" vertex="1" parent="1">
          <mxGeometry x="425" y="190" width="40" height="40" as="geometry" />
        </mxCell>
        <mxCell id="f6-fJL4klEwai7N9noOa-8" value="Act&lt;div&gt;実行&lt;/div&gt;" style="ellipse;whiteSpace=wrap;html=1;fillColor=#d5e8d4;strokeColor=#82b366;" vertex="1" parent="1">
          <mxGeometry x="770" y="280" width="110" height="100" as="geometry" />
        </mxCell>
        <mxCell id="f6-fJL4klEwai7N9noOa-9" value="" style="shape=flexArrow;endArrow=classic;html=1;rounded=0;" edge="1" parent="1">
          <mxGeometry width="50" height="50" relative="1" as="geometry">
            <mxPoint x="130" y="329.58000000000004" as="sourcePoint" />
            <mxPoint x="190" y="329.58000000000004" as="targetPoint" />
          </mxGeometry>
        </mxCell>
        <mxCell id="f6-fJL4klEwai7N9noOa-10" value="" style="shape=flexArrow;endArrow=classic;html=1;rounded=0;" edge="1" parent="1">
          <mxGeometry width="50" height="50" relative="1" as="geometry">
            <mxPoint x="320" y="329.58000000000004" as="sourcePoint" />
            <mxPoint x="380" y="329.58000000000004" as="targetPoint" />
          </mxGeometry>
        </mxCell>
        <mxCell id="f6-fJL4klEwai7N9noOa-11" value="" style="shape=flexArrow;endArrow=classic;html=1;rounded=0;" edge="1" parent="1">
          <mxGeometry width="50" height="50" relative="1" as="geometry">
            <mxPoint x="510" y="329.58000000000004" as="sourcePoint" />
            <mxPoint x="570" y="329.58000000000004" as="targetPoint" />
          </mxGeometry>
        </mxCell>
        <mxCell id="f6-fJL4klEwai7N9noOa-12" value="" style="shape=flexArrow;endArrow=classic;html=1;rounded=0;" edge="1" parent="1">
          <mxGeometry width="50" height="50" relative="1" as="geometry">
            <mxPoint x="700" y="329.58000000000004" as="sourcePoint" />
            <mxPoint x="760" y="329.58000000000004" as="targetPoint" />
          </mxGeometry>
        </mxCell>
        <mxCell id="f6-fJL4klEwai7N9noOa-13" value="" style="shape=flexArrow;endArrow=classic;html=1;rounded=0;" edge="1" parent="1">
          <mxGeometry width="50" height="50" relative="1" as="geometry">
            <mxPoint x="890" y="329.58000000000004" as="sourcePoint" />
            <mxPoint x="950" y="329.58000000000004" as="targetPoint" />
          </mxGeometry>
        </mxCell>
        <mxCell id="f6-fJL4klEwai7N9noOa-14" value="" style="endArrow=classic;html=1;rounded=0;entryX=0.545;entryY=0;entryDx=0;entryDy=0;entryPerimeter=0;exitX=0;exitY=0.5;exitDx=0;exitDy=0;" edge="1" parent="1" source="f6-fJL4klEwai7N9noOa-7" target="f6-fJL4klEwai7N9noOa-3">
          <mxGeometry width="50" height="50" relative="1" as="geometry">
            <mxPoint x="350" y="210" as="sourcePoint" />
            <mxPoint x="400" y="160" as="targetPoint" />
          </mxGeometry>
        </mxCell>
        <mxCell id="f6-fJL4klEwai7N9noOa-15" value="フィードバック" style="text;html=1;align=center;verticalAlign=middle;whiteSpace=wrap;rounded=0;" vertex="1" parent="1">
          <mxGeometry x="290" y="195" width="60" height="30" as="geometry" />
        </mxCell>
        <mxCell id="f6-fJL4klEwai7N9noOa-16" value="" style="endArrow=classic;html=1;rounded=0;entryX=0.5;entryY=1;entryDx=0;entryDy=0;exitX=0.5;exitY=0;exitDx=0;exitDy=0;" edge="1" parent="1" source="f6-fJL4klEwai7N9noOa-2" target="f6-fJL4klEwai7N9noOa-7">
          <mxGeometry width="50" height="50" relative="1" as="geometry">
            <mxPoint x="585" y="260" as="sourcePoint" />
            <mxPoint x="420" y="330" as="targetPoint" />
          </mxGeometry>
        </mxCell>
        <mxCell id="f6-fJL4klEwai7N9noOa-17" value="" style="endArrow=classic;html=1;rounded=0;entryX=1;entryY=0.5;entryDx=0;entryDy=0;exitX=0.5;exitY=0;exitDx=0;exitDy=0;" edge="1" parent="1" source="f6-fJL4klEwai7N9noOa-4" target="f6-fJL4klEwai7N9noOa-7">
          <mxGeometry width="50" height="50" relative="1" as="geometry">
            <mxPoint x="610" y="260" as="sourcePoint" />
            <mxPoint x="610" y="210" as="targetPoint" />
          </mxGeometry>
        </mxCell>
        <mxCell id="f6-fJL4klEwai7N9noOa-18" value="" style="endArrow=classic;html=1;rounded=0;entryX=1;entryY=0.5;entryDx=0;entryDy=0;exitX=0.5;exitY=0;exitDx=0;exitDy=0;" edge="1" parent="1" source="f6-fJL4klEwai7N9noOa-8" target="f6-fJL4klEwai7N9noOa-7">
          <mxGeometry width="50" height="50" relative="1" as="geometry">
            <mxPoint x="800" y="260" as="sourcePoint" />
            <mxPoint x="610" y="210" as="targetPoint" />
          </mxGeometry>
        </mxCell>
        <mxCell id="f6-fJL4klEwai7N9noOa-19" value="フィード&lt;div&gt;フォワード&lt;/div&gt;" style="text;html=1;align=center;verticalAlign=middle;whiteSpace=wrap;rounded=0;" vertex="1" parent="1">
          <mxGeometry x="310" y="360" width="80" height="30" as="geometry" />
        </mxCell>
        <mxCell id="f6-fJL4klEwai7N9noOa-20" value="1. 自らの行為の原則&lt;div&gt;→ すること、しないことを決める&lt;/div&gt;&lt;div&gt;2. 内的な先天的要求&lt;/div&gt;&lt;div&gt;→条件に合致する、しない&lt;/div&gt;&lt;div&gt;4. 与えられた状況&lt;/div&gt;" style="rounded=0;whiteSpace=wrap;html=1;" vertex="1" parent="1">
          <mxGeometry x="210" y="414" width="290" height="106" as="geometry" />
        </mxCell>
        <mxCell id="f6-fJL4klEwai7N9noOa-21" value="&lt;div&gt;&lt;span style=&quot;background-color: transparent; color: light-dark(rgb(0, 0, 0), rgb(255, 255, 255));&quot;&gt;3. 自己が選ぶ&lt;/span&gt;&lt;/div&gt;&lt;div&gt;4. どのように振る舞うか&lt;/div&gt;" style="rounded=0;whiteSpace=wrap;html=1;" vertex="1" parent="1">
          <mxGeometry x="550" y="400" width="190" height="96" as="geometry" />
        </mxCell>
        <mxCell id="f6-fJL4klEwai7N9noOa-22" value="&lt;div&gt;2. 理想を実現する&lt;/div&gt;&lt;div&gt;→ 理想に近づく&lt;/div&gt;5. 生み出す、生産する&lt;div&gt;→ 生を肯定する(いきいき）&lt;/div&gt;" style="rounded=0;whiteSpace=wrap;html=1;" vertex="1" parent="1">
          <mxGeometry x="770" y="400" width="190" height="96" as="geometry" />
        </mxCell>
      </root>
    </mxGraphModel>
  </diagram>
</mxfile>
